<?xml version="1.0" standalone="no"?>
<!DOCTYPE svg PUBLIC "-//W3C//DTD SVG 20010904//EN"
 "http://www.w3.org/TR/2001/REC-SVG-20010904/DTD/svg10.dtd">
<svg version="1.0" xmlns="http://www.w3.org/2000/svg"
 width="225.000000pt" height="225.000000pt" viewBox="0 0 225.000000 225.000000"
 preserveAspectRatio="xMidYMid meet">
<metadata>
Created by potrace 1.14, written by Peter Selinger 2001-2017
</metadata>
<g transform="translate(0.000000,225.000000) scale(0.100000,-0.100000)"
fill="#000000" stroke="none">
<path d="M497 2115 c-22 -7 -49 -22 -61 -34 -15 -14 -26 -17 -36 -11 -8 5 -32
10 -53 10 -28 0 -44 -7 -62 -26 -14 -15 -25 -35 -25 -44 0 -23 38 -70 56 -70
22 0 17 -17 -16 -52 -16 -17 -30 -35 -30 -39 0 -5 -4 -9 -9 -9 -12 0 -98 -90
-146 -153 -77 -100 -88 -184 -14 -104 l30 32 -12 -30 c-7 -16 -18 -36 -23 -44
-7 -9 -11 -105 -10 -273 2 -258 2 -259 -17 -229 -10 17 -26 31 -35 31 -17 0
-15 -8 16 -92 17 -46 17 -46 -17 -178 -30 -118 -33 -144 -31 -244 l3 -111 34
3 c44 3 74 35 91 95 7 26 16 46 20 45 15 -6 110 -132 111 -147 1 -9 2 -41 3
-71 1 -30 10 -73 19 -95 18 -42 81 -106 132 -132 41 -22 136 -24 203 -6 32 9
69 16 85 15 15 -1 27 3 27 8 0 6 12 9 26 8 22 -2 23 -4 9 -15 -15 -10 -11 -13
25 -23 43 -11 69 -7 31 5 -12 3 -21 10 -21 15 0 8 24 6 100 -6 30 -5 189 -15
270 -17 47 -2 145 13 265 38 156 33 220 41 211 26 -4 -6 -13 -11 -20 -11 -8 0
-19 -7 -26 -15 -11 -13 -8 -13 28 -1 48 17 178 84 195 100 7 7 29 22 50 35 53
33 77 70 80 129 0 13 6 21 13 18 6 -2 17 1 23 7 14 14 14 2 0 -26 -17 -35 68
62 104 117 17 28 40 60 49 70 10 11 18 26 18 33 0 8 9 34 21 59 11 25 19 53
18 62 -5 37 14 138 29 155 16 18 18 85 4 99 -4 4 -4 47 0 95 5 49 5 115 1 148
-4 33 -6 66 -4 72 1 7 -9 36 -23 65 -20 43 -24 64 -20 110 l5 57 -33 6 c-29 6
-38 15 -68 73 -38 74 -150 195 -176 190 -10 -2 -18 5 -19 15 -5 28 -58 85 -80
86 -17 1 -17 3 -5 11 12 8 12 10 -5 11 l-20 0 20 9 c17 7 17 9 3 9 -12 1 -18
9 -18 26 0 34 -25 42 -141 49 -52 3 -115 12 -141 20 -44 14 -116 28 -145 29
-7 0 -13 3 -13 6 0 8 -41 10 -205 10 -137 0 -162 -1 -336 -14 -55 -4 -96 -2
-115 5 -44 18 -154 20 -197 5z m133 -45 c0 -4 -20 -13 -45 -19 -25 -6 -75 -28
-111 -48 l-67 -36 19 29 c23 36 41 51 78 68 31 14 126 18 126 6z m75 -20 c3
-5 -3 -10 -14 -10 -11 0 -23 -5 -26 -10 -4 -6 -11 -8 -16 -5 -5 4 -9 1 -9 -4
0 -6 -5 -11 -12 -11 -15 0 1 17 34 35 29 17 35 17 43 5z m-345 -40 c-11 -21
-35 -27 -45 -10 -10 16 4 30 31 30 22 0 23 -3 14 -20z m623 -5 c3 -13 -29 -18
-61 -9 l-27 7 30 8 c37 9 55 7 58 -6z m60 8 c-7 -2 -19 -2 -25 0 -7 3 -2 5 12
5 14 0 19 -2 13 -5z m260 0 c-7 -2 -19 -2 -25 0 -7 3 -2 5 12 5 14 0 19 -2 13
-5z m47 -3 c-19 -13 -30 -13 -30 0 0 6 10 10 23 10 18 0 19 -2 7 -10z m-146
-25 c11 -8 18 -15 15 -15 -2 0 -29 -3 -59 -6 l-55 -6 30 21 c36 24 44 25 69 6z
m359 -10 c58 -15 67 -21 67 -41 0 -12 6 -24 13 -27 6 -2 9 -7 6 -11 -3 -3 -28
8 -55 26 -27 18 -60 35 -74 36 -28 4 -50 19 -50 34 0 6 6 8 13 6 6 -3 42 -13
80 -23z m-1003 0 c-7 -8 -20 -15 -29 -15 -13 1 -13 3 3 15 26 19 42 19 26 0z
m303 -3 c16 -18 15 -19 -16 -29 -30 -9 -36 -7 -58 15 -23 25 -23 25 -3 20 12
-3 28 -2 35 3 20 12 24 11 42 -9z m-73 -43 c0 -11 -12 -11 -35 -3 -12 5 -14 9
-4 14 14 9 39 2 39 -11z m555 11 c22 -10 20 -10 -48 -14 -62 -3 -46 13 23 22
3 0 14 -3 25 -8z m-891 -29 c7 -10 -22 -37 -30 -28 -9 8 3 37 15 37 5 0 12 -4
15 -9z m96 -61 c-64 -59 -103 -84 -55 -35 14 13 25 29 25 34 0 12 83 71 90 65
2 -3 -25 -32 -60 -64z m528 63 c-10 -2 -26 -2 -35 0 -10 3 -2 5 17 5 19 0 27
-2 18 -5z m231 -20 c15 -7 33 -13 41 -14 23 -1 97 -37 79 -38 -9 -1 -42 8 -74
19 -32 11 -60 18 -63 15 -3 -2 -14 1 -26 7 -11 6 -41 12 -66 14 -72 5 -77 6
-45 14 39 9 122 0 154 -17z m260 -37 c15 -8 34 -22 42 -32 13 -16 12 -16 -11
-4 -30 16 -75 50 -66 50 4 0 19 -6 35 -14z m-449 -6 c-170 -15 -372 -68 -413
-109 -20 -20 -20 -21 -3 -21 11 0 39 12 63 26 25 14 47 24 49 21 5 -5 -75 -67
-87 -67 -4 0 -44 -22 -88 -50 -45 -27 -88 -47 -96 -44 -10 4 -15 0 -15 -11 0
-17 -26 -44 -43 -45 -17 0 47 79 88 110 50 37 53 50 6 27 -25 -12 -29 -12 -24
-1 8 22 132 98 183 113 25 7 63 19 85 27 22 7 65 16 95 20 30 3 56 7 58 9 2 1
53 3 115 3 l112 0 -85 -8z m-730 -10 c0 -5 -2 -10 -4 -10 -3 0 -8 5 -11 10 -3
6 -1 10 4 10 6 0 11 -4 11 -10z m1397 -2 c7 -9 4 -18 -8 -30 -21 -19 -32 -13
-19 12 5 10 6 20 3 24 -3 3 -2 6 4 6 6 0 15 -6 20 -12z m-272 -28 c4 -6 -2 -7
-16 -1 -13 4 -25 14 -27 20 -3 10 0 10 16 2 12 -6 24 -16 27 -21z m-1193 -7
c-6 -36 -59 -103 -80 -103 -11 0 -13 -3 -5 -8 8 -5 6 -17 -8 -42 -15 -30 -18
-32 -19 -12 0 12 -4 22 -10 22 -12 0 6 51 24 65 7 6 18 20 25 33 7 12 16 20
21 17 6 -3 7 0 4 8 -3 9 4 22 18 31 31 22 36 20 30 -11z m731 -20 c-29 -6 -29
-27 -1 -40 20 -9 20 -10 -9 -10 -18 0 -30 4 -27 9 3 4 -2 5 -10 2 -9 -3 -16
-1 -16 4 0 20 32 42 58 41 24 -2 24 -2 5 -6z m87 -3 c0 -5 -6 -10 -14 -10 -8
0 -18 5 -21 10 -3 6 3 10 14 10 12 0 21 -4 21 -10z m186 -10 c27 -9 34 -16 29
-29 -4 -9 -9 -22 -12 -28 -3 -9 4 -13 22 -13 22 0 26 4 22 20 -3 13 0 20 9 20
8 0 14 -5 14 -11 0 -6 6 -9 14 -6 23 9 74 -54 82 -100 4 -24 10 -43 15 -43 5
0 9 -6 9 -13 0 -7 27 -31 60 -52 54 -35 60 -42 66 -82 7 -50 23 -63 75 -63 11
0 18 -3 16 -7 -3 -5 -8 -35 -11 -68 -4 -33 -9 -69 -11 -80 -3 -11 -7 -42 -9
-70 -8 -80 -17 -148 -21 -156 -8 -12 32 -49 52 -49 40 0 59 31 62 103 1 15 4
15 21 5 11 -7 22 -19 25 -27 3 -9 3 -12 -1 -8 -4 4 -20 -19 -36 -50 -34 -67
-104 -163 -119 -163 -6 0 -8 7 -5 15 3 9 -2 34 -10 56 -13 30 -15 59 -11 123
8 110 18 168 30 184 5 6 7 12 4 12 -3 0 1 22 8 49 11 44 11 52 -5 76 -26 39
-82 84 -106 85 -60 1 -215 -170 -252 -279 -17 -48 -15 -118 4 -149 24 -40 83
-82 116 -82 18 0 41 11 61 30 l32 29 18 -47 c21 -54 43 -81 74 -93 30 -11 21
-31 -25 -57 -20 -12 -56 -39 -80 -62 -23 -22 -49 -40 -57 -40 -8 0 -15 -4 -15
-10 0 -5 7 -7 16 -3 27 10 6 -68 -25 -92 -29 -23 -69 -45 -81 -45 -11 0 -3 61
10 74 5 5 10 19 9 31 -1 17 -2 16 -8 -5 -4 -14 -12 -25 -18 -25 -20 0 -28 -16
-13 -25 12 -8 10 -10 -7 -10 -25 0 -29 -10 -11 -28 15 -15 9 -20 -31 -32 -19
-5 -29 -5 -26 1 4 5 14 9 23 9 16 1 15 1 -1 11 -21 12 -37 4 -37 -20 0 -10 -6
-18 -12 -18 -93 -5 -119 -3 -112 9 3 4 -2 11 -11 14 -12 5 -13 9 -4 20 14 17
30 18 26 3 -1 -6 4 -14 11 -16 9 -3 12 2 10 13 -2 13 2 18 15 16 9 -2 17 1 17
7 0 5 15 19 33 30 40 25 77 88 77 132 0 65 -75 169 -122 169 -11 0 -11 2 0 9
7 4 31 3 53 -3 46 -12 63 2 49 40 -11 29 3 121 36 236 32 110 29 135 -15 165
-32 22 -36 22 -59 7 -24 -15 -25 -15 -46 11 -27 33 -56 26 -56 -15 0 -37 19
-91 40 -115 17 -19 17 -23 -12 -103 -17 -46 -32 -81 -34 -79 -2 2 4 43 13 91
l17 88 -27 24 c-26 22 -27 28 -22 74 5 41 3 52 -11 57 -16 6 -32 -8 -69 -60
-12 -17 -16 -17 -41 -5 -23 11 -74 14 -74 4 0 -1 -16 -49 -36 -106 -20 -58
-37 -113 -39 -123 -2 -10 -7 -28 -11 -39 -9 -30 -7 -94 4 -115 6 -10 33 -27
61 -37 45 -16 50 -20 35 -30 -9 -7 -27 -11 -40 -8 -31 6 -34 -27 -4 -35 20 -5
20 -7 4 -24 -19 -21 -21 -86 -4 -103 5 -5 10 -17 10 -26 0 -9 9 -25 20 -35 12
-10 18 -25 16 -32 -3 -8 2 -13 12 -13 10 0 23 -5 29 -11 6 -6 28 -17 49 -24
l39 -14 -32 -13 c-36 -14 -47 -44 -13 -35 11 3 17 1 14 -4 -8 -14 -54 -5 -65
12 -14 22 -11 32 7 25 14 -5 15 -4 4 9 -7 8 -9 15 -4 15 5 0 0 6 -10 12 -15 8
-21 7 -28 -6 -5 -9 -15 -16 -22 -16 -7 0 -21 -9 -33 -19 -19 -18 -21 -18 -47
-2 -14 10 -23 21 -19 25 4 4 0 4 -8 1 -9 -3 -37 8 -65 27 -27 18 -88 56 -136
83 -96 55 -126 86 -52 54 51 -21 64 -23 64 -10 0 5 -24 19 -54 31 -33 14 -58
32 -65 46 -6 13 -14 24 -19 24 -16 0 -122 139 -122 160 0 22 35 59 57 60 7 0
12 4 10 9 -1 4 27 44 63 87 37 44 91 113 122 154 122 166 146 219 120 267 -10
19 -9 24 8 36 56 39 -45 18 -122 -25 -76 -43 -92 -53 -112 -70 -30 -27 -43
-21 -16 7 13 14 32 25 41 25 18 0 43 33 33 43 -3 3 7 14 22 24 16 10 47 35 69
56 22 21 54 45 70 54 17 8 38 23 48 31 10 9 30 16 45 17 15 0 26 6 25 13 -5
23 33 33 65 16 l30 -15 -49 -46 c-27 -25 -49 -53 -49 -62 0 -10 -5 -22 -11
-28 -16 -16 -13 -81 4 -101 8 -9 18 -27 21 -39 10 -31 26 -42 92 -59 82 -22
114 -20 178 9 96 44 143 155 97 232 -12 20 -18 41 -15 47 4 7 2 8 -4 4 -7 -4
-23 4 -37 18 -14 15 -30 26 -34 26 -5 0 -14 7 -21 15 -10 12 -10 15 3 15 11 0
14 5 10 18 -5 14 -4 15 8 6 22 -17 49 -24 49 -14 0 6 -9 10 -20 10 -11 0 -20
3 -20 8 0 11 116 5 156 -8z m-346 3 c0 -5 -5 -15 -10 -23 -7 -12 -10 -12 -10
-1 0 7 -6 11 -15 7 -8 -3 -15 -1 -15 4 0 5 8 11 18 13 28 7 32 7 32 0z m595
-43 c3 -5 2 -10 -4 -10 -5 0 -13 5 -16 10 -3 6 -2 10 4 10 5 0 13 -4 16 -10z
m-418 -87 c32 -20 55 -44 59 -58 14 -56 -26 -125 -87 -149 -53 -21 -86 -22
-144 -2 -44 15 -52 22 -70 64 -20 45 -20 49 -4 80 10 18 25 42 35 53 20 23 83
56 65 35 -6 -7 -8 -16 -4 -19 12 -13 23 -7 23 14 0 16 4 19 21 14 16 -5 19 -4
14 5 -12 20 34 2 92 -37z m763 27 c0 -5 -2 -10 -4 -10 -3 0 -8 5 -11 10 -3 6
-1 10 4 10 6 0 11 -4 11 -10z m126 -42 c8 -16 13 -28 10 -28 -5 0 -46 69 -46
78 0 8 15 -13 36 -50z m-380 -65 c-3 -4 -6 0 -6 7 0 9 -5 7 -15 -6 -14 -18
-16 -18 -28 -2 -8 10 -16 16 -18 14 -2 -2 -13 8 -24 22 l-19 27 37 -28 c41
-31 47 -28 17 10 -33 42 -23 42 21 1 23 -22 38 -42 35 -45z m274 68 c0 -5 -5
-11 -11 -13 -9 -3 -9 -9 0 -25 6 -12 11 -30 11 -40 -1 -15 -4 -14 -24 9 -28
32 -25 78 5 78 11 0 19 -4 19 -9z m28 -57 c-4 -3 -12 5 -18 18 -12 22 -12 22
6 6 10 -10 15 -20 12 -24z m-268 -54 c7 0 10 -3 7 -7 -9 -8 -57 17 -57 30 0 6
8 3 18 -6 10 -10 25 -17 32 -17z m-1546 -7 c-4 -16 -10 -32 -15 -37 -5 -5 -4
6 1 25 6 18 10 35 10 36 0 2 2 3 5 3 3 0 2 -12 -1 -27z m282 -150 c-13 -16
-35 -41 -50 -58 -21 -25 -25 -27 -26 -11 0 20 66 92 88 95 6 0 1 -11 -12 -26z
m34 -86 c0 -2 -10 -12 -22 -23 l-23 -19 19 23 c18 21 26 27 26 19z m1105 -73
c-18 -62 -67 -145 -109 -183 -25 -24 -26 -24 -26 -3 0 39 133 262 148 247 2
-2 -4 -29 -13 -61z m280 -19 c-3 -26 -8 -45 -11 -43 -2 3 -1 26 2 52 4 25 9
44 12 42 2 -3 1 -26 -3 -51z m-830 -91 c-28 -64 -28 -51 1 38 11 31 20 48 22
38 2 -10 -9 -44 -23 -76z m-705 79 c-1 -5 -10 -24 -21 -43 l-20 -35 7 35 c7
41 12 50 25 50 5 0 9 -3 9 -7z m755 -292 c-2 -5 -14 -11 -26 -14 -20 -5 -20
-5 -4 13 17 18 41 18 30 1z m950 -48 c-4 -17 -9 -23 -16 -16 -7 7 -6 19 3 38
14 31 23 17 13 -22z m-835 -19 c72 -29 109 -113 75 -171 -16 -27 -72 -73 -89
-73 -4 0 0 8 10 17 24 24 0 29 -34 7 -15 -10 -29 -17 -31 -15 -2 1 -7 -3 -11
-9 -6 -9 -16 -8 -43 4 -44 21 -76 55 -97 103 -15 36 -15 39 8 83 20 40 30 48
65 57 64 15 103 15 147 -3z m525 -83 c-3 -6 -11 -11 -16 -11 -5 0 -4 6 3 14
14 16 24 13 13 -3z m112 -23 c-3 -8 -6 -5 -6 6 -1 11 2 17 5 13 3 -3 4 -12 1
-19z m-165 -10 c-7 -7 -12 -8 -12 -2 0 14 12 26 19 19 2 -3 -1 -11 -7 -17z
m-1362 -10 c0 -13 -23 -5 -28 10 -2 7 2 10 12 6 9 -3 16 -11 16 -16z m1370
-28 c8 -14 2 -23 -28 -44 -21 -14 -41 -26 -45 -26 -9 0 3 32 20 52 9 9 10 18
5 22 -6 3 -12 -1 -15 -8 -3 -8 -16 -20 -29 -27 -18 -9 -16 -4 10 24 36 37 65
40 82 7z m316 -9 c-9 -16 -12 -31 -9 -35 4 -3 1 -6 -5 -6 -20 0 -24 21 -8 45
23 35 40 31 22 -4z m108 -54 c-26 -47 -44 -60 -44 -32 0 8 -8 15 -17 16 -14 0
-15 2 -3 6 8 3 18 10 21 15 7 11 63 46 67 43 1 -1 -9 -23 -24 -48z m-1813 -29
c7 -14 6 -18 -4 -18 -8 0 -17 8 -21 18 -3 9 -10 28 -16 42 l-10 25 20 -25 c11
-14 25 -33 31 -42z m1659 32 c0 -5 -2 -10 -4 -10 -3 0 -8 5 -11 10 -3 6 -1 10
4 10 6 0 11 -4 11 -10z m-1244 -68 c-5 -4 -66 26 -66 33 0 3 16 -3 35 -12 19
-9 33 -18 31 -21z m1328 6 c-14 -6 -12 -7 9 -3 31 6 35 -5 10 -27 -52 -45 -94
-45 -66 0 22 36 44 53 56 45 6 -4 3 -10 -9 -15z m-100 -3 c3 -8 1 -15 -4 -15
-6 0 -10 -6 -10 -13 0 -7 -9 -20 -20 -30 -11 -9 -20 -15 -20 -13 0 3 -3 11 -6
20 -4 11 -1 16 10 16 8 0 18 11 22 25 7 28 19 32 28 10z m-1624 -5 c0 -5 -5
-10 -11 -10 -5 0 -7 5 -4 10 3 6 8 10 11 10 2 0 4 -4 4 -10z m80 -31 c0 -6 7
-8 16 -5 11 4 15 2 11 -8 -3 -8 1 -20 9 -27 8 -6 12 -14 9 -17 -2 -3 3 -11 13
-18 14 -10 15 -15 4 -26 -10 -10 -19 -9 -47 6 -41 23 -84 66 -65 66 7 0 10 3
7 7 -9 9 12 33 29 33 8 0 14 -5 14 -11z m599 -20 c12 -20 11 -21 -11 -16 -12
4 -26 7 -30 7 -5 0 -8 4 -8 10 0 5 7 6 17 3 11 -4 14 -3 9 5 -4 7 -3 12 1 12
5 0 14 -10 22 -21z m161 -20 c0 -5 -10 -9 -21 -9 -18 0 -19 2 -9 15 12 15 30
12 30 -6z m676 -16 c-10 -10 -19 5 -10 18 6 11 8 11 12 0 2 -7 1 -15 -2 -18z
m-1311 -3 c10 -11 16 -20 13 -20 -3 0 -13 9 -23 20 -10 11 -16 20 -13 20 3 0
13 -9 23 -20z m-50 -151 c17 -11 23 -19 15 -19 -8 0 -2 -7 14 -15 25 -13 39
-18 76 -24 3 -1 -1 -5 -9 -10 -11 -7 -3 -13 29 -22 l44 -13 -34 -7 c-50 -11
-138 -3 -163 14 -77 51 -127 136 -113 192 5 20 9 18 58 -28 29 -28 67 -58 83
-68z m369 106 c11 -8 31 -15 45 -15 21 0 23 -2 11 -10 -26 -16 -54 -10 -73 15
-20 28 -12 32 17 10z m923 -21 c-3 -3 -12 -4 -19 -1 -8 3 -5 6 6 6 11 1 17 -2
13 -5z m-1233 -17 c18 -13 18 -14 2 -20 -22 -9 -36 -1 -36 19 0 18 11 18 34 1z
m1362 -24 c-34 -32 -40 -34 -48 -19 -12 21 -12 20 32 39 55 24 58 19 16 -20z
m-1237 -13 c11 0 22 -4 25 -9 4 -5 -3 -7 -14 -4 -16 4 -20 0 -20 -21 0 -14 -3
-26 -7 -26 -18 1 -32 17 -31 35 1 11 -2 31 -6 45 l-7 25 20 -22 c10 -13 28
-23 40 -23z m1001 1 c0 -5 -7 -12 -16 -15 -20 -8 -9 -26 17 -26 26 0 24 -17
-3 -26 -30 -9 -158 -12 -163 -4 -7 12 21 31 47 33 13 1 38 12 57 24 35 24 61
30 61 14z m-270 -36 c0 -25 -1 -25 -30 -10 -16 8 -46 19 -67 24 -35 8 -33 9
30 10 65 1 67 0 67 -24z m450 11 c0 -4 -78 -56 -85 -56 -3 0 -5 5 -5 10 0 6 7
10 15 10 8 0 15 4 15 8 0 5 10 14 23 20 23 11 37 14 37 8z m-1015 -16 c-3 -5
-12 -10 -18 -10 -7 0 -6 4 3 10 19 12 23 12 15 0z m337 -2 c10 -5 15 -15 12
-23 -4 -8 -1 -15 5 -15 6 0 11 7 11 15 0 12 7 14 28 9 77 -17 102 -26 102 -34
0 -5 6 -7 14 -4 8 3 17 1 20 -4 5 -9 -92 -22 -172 -22 -24 0 -67 6 -95 14 -29
8 -64 17 -78 20 -34 7 -48 36 -16 32 12 -1 38 -8 57 -14 89 -29 110 -20 46 19
l-31 20 40 -2 c22 -2 48 -6 57 -11z m-208 -20 c-3 -4 -9 -8 -15 -8 -5 0 -9 4
-9 8 0 5 7 9 15 9 8 0 12 -4 9 -9z m-234 -29 c0 -6 -4 -7 -10 -4 -5 3 -10 11
-10 16 0 6 5 7 10 4 6 -3 10 -11 10 -16z m720 -29 c11 -4 -46 -16 -57 -12 -22
7 -5 19 24 16 15 -1 30 -3 33 -4z m-630 -10 c0 -5 -9 -10 -19 -10 -11 0 -23 5
-26 10 -4 6 5 10 19 10 14 0 26 -4 26 -10z"/>
<path d="M1280 1756 c0 -19 19 -31 31 -19 5 5 0 14 -11 21 -17 10 -20 10 -20
-2z"/>
<path d="M1165 1740 c-3 -5 1 -10 9 -10 9 0 16 5 16 10 0 6 -4 10 -9 10 -6 0
-13 -4 -16 -10z"/>
<path d="M1360 1681 c0 -18 18 -21 30 -6 10 13 9 15 -9 15 -11 0 -21 -4 -21
-9z"/>
<path d="M1439 1649 c-8 -17 -8 -20 2 -17 7 2 13 12 15 21 3 23 -3 21 -17 -4z"/>
<path d="M1400 1639 c0 -11 4 -18 10 -14 5 3 7 12 3 20 -7 21 -13 19 -13 -6z"/>
<path d="M1475 1640 c-3 -5 -1 -10 4 -10 6 0 11 5 11 10 0 6 -2 10 -4 10 -3 0
-8 -4 -11 -10z"/>
<path d="M1480 1600 c0 -5 5 -10 11 -10 5 0 7 5 4 10 -3 6 -8 10 -11 10 -2 0
-4 -4 -4 -10z"/>
<path d="M760 1298 c0 -7 -13 -19 -29 -26 -73 -32 -207 -211 -226 -302 -4 -19
-18 -42 -31 -53 -34 -26 -33 -74 1 -87 14 -5 31 -7 39 -4 8 3 30 -6 48 -19 51
-39 81 -43 120 -15 18 12 36 27 39 32 8 10 13 2 29 -47 6 -21 23 -49 36 -62
47 -47 93 -21 61 34 -24 42 -9 280 22 339 9 17 14 52 12 87 -1 21 -41 70 -62
77 -6 2 -12 15 -13 28 -1 18 -8 26 -23 28 -14 2 -23 -2 -23 -10z m-15 -187
c-17 -66 -52 -134 -93 -182 -94 -110 -43 41 60 178 22 29 42 53 43 53 2 0 -3
-22 -10 -49z"/>
<path d="M730 696 c0 -2 7 -6 15 -10 8 -3 15 -1 15 4 0 6 -7 10 -15 10 -8 0
-15 -2 -15 -4z"/>
<path d="M1436 596 c3 -8 12 -17 20 -20 11 -4 12 -2 1 14 -14 23 -29 27 -21 6z"/>
<path d="M850 530 c20 -13 33 -13 25 0 -3 6 -14 10 -23 10 -15 0 -15 -2 -2
-10z"/>
<path d="M1185 480 c-19 -8 -19 -9 3 -9 12 -1 22 4 22 9 0 6 -1 10 -2 9 -2 0
-12 -4 -23 -9z"/>
<path d="M1979 493 c-13 -16 -12 -17 4 -4 16 13 21 21 13 21 -2 0 -10 -8 -17
-17z"/>
<path d="M1912 2057 c-30 -32 -27 -61 9 -91 52 -44 120 -26 135 36 15 65 -95
107 -144 55z m93 -47 c0 -8 -8 -16 -18 -18 -21 -4 -49 16 -41 30 9 15 59 5 59
-12z"/>
<path d="M2207 1634 c-11 -11 3 -24 18 -18 8 4 12 10 9 15 -6 11 -18 12 -27 3z"/>
<path d="M2224 816 c-8 -21 -1 -49 14 -54 8 -2 12 8 12 32 0 36 -16 49 -26 22z"/>
<path d="M1510 138 c-19 -6 -30 -12 -24 -14 5 -3 28 2 50 10 45 17 26 19 -26
4z"/>
</g>
</svg>
